<?xml version="1.0" encoding="UTF-8"?><svg id="Layer_2" xmlns="http://www.w3.org/2000/svg" viewBox="0 0 1876.55 385.36"><defs><style>.cls-1{fill:#0071bc;}.cls-1,.cls-2{stroke-width:0px;}.cls-2{fill:#29abe2;}</style></defs><g id="Layer_1-2"><path class="cls-2" d="M191.93,385.36C77.87,385.36,0,301.46,0,191.93S84.41,0,192.42,0c30.25,0,63.81,7.32,82.86,15.19,6.51,2.69,10.6,9.22,10.6,16.26v.44c0,12.47-12.49,21.09-24.1,16.57-20.15-7.85-46.82-14.28-68.85-14.28-90.95,0-155.75,70.34-155.75,158.26s67.32,159.27,155.24,159.27c25.47,0,49.49-5.57,69.53-13.52,11.51-4.56,23.93,4.26,23.93,16.64h0c0,7.26-4.36,13.82-11.1,16.54-22.86,9.23-51.95,14-82.86,14Z"/><path class="cls-2" d="M567.71,378.83c-9.71,0-17.58-7.87-17.58-17.58v-133.65c0-26.13-6.53-56.77-26.13-75.36-16.08-15.08-37.69-23.62-59.79-23.62s-43.72,8.54-59.78,23.62c-19.09,18.08-25.63,47.73-25.63,72.85v136.17c0,9.71-7.87,17.58-17.58,17.58h0c-9.71,0-17.58-7.87-17.58-17.58V24.62c0-9.71,7.87-17.58,17.58-17.58h0c9.71,0,17.58,7.87,17.58,17.58v87.49c0,8.88,10.27,13.6,17.14,7.98,18.84-15.41,44.11-23.11,68.27-23.11,78.88,0,121.09,54.76,121.09,130.63v133.65c0,9.71-7.87,17.58-17.58,17.58h-.01Z"/><path class="cls-2" d="M913.35,378.83c-9.71,0-17.59-7.87-17.59-17.59v-2.52c0-9.24-10.94-13.61-17.71-7.31-24.14,22.46-56.76,33.94-90.32,33.94-82.39,0-147.71-61.8-147.71-144.7s66.83-143.69,147.71-143.69c33.95,0,66.66,11.16,90.57,33.98,6.54,6.24,17.45,1.16,17.45-7.88v-1.48c0-9.71,7.87-17.59,17.59-17.59h0c9.71,0,17.59,7.87,17.59,17.59v239.65c0,9.71-7.87,17.59-17.59,17.59h0ZM787.74,128.62c-65.31,0-112.53,48.74-112.53,113.56s48.22,111.53,112.53,111.53,110.04-50.74,110.04-112.03-47.73-113.06-110.04-113.06Z"/><path class="cls-2" d="M1062.03,146.13v216.88c0,8.74-7.09,15.83-15.83,15.83h-3.52c-8.74,0-15.83-7.09-15.83-15.83v-216.88c0-5.78-4.69-10.47-10.47-10.47h-31.49c-8.74,0-15.83-7.09-15.83-15.83h0c0-8.74,7.09-15.83,15.83-15.83h31.49c5.78,0,10.47-4.69,10.47-10.47V22.87c0-8.74,7.09-15.83,15.83-15.83h3.52c8.74,0,15.83,7.09,15.83,15.83v70.67c0,5.78,4.69,10.47,10.47,10.47h39.53c8.74,0,15.83,7.09,15.83,15.83h0c0,8.74-7.09,15.83-15.83,15.83h-39.53c-5.78,0-10.47,4.69-10.47,10.47Z"/><path class="cls-1" d="M1443.52,375.06c-10.13,0-18.34-8.21-18.34-18.34v-.54c0-9.16-10.97-13.9-17.59-7.57-28.42,27.18-67.91,33.48-94.46,33.48-93.45,0-133.14-66.82-133.14-148.22V21.61c0-10.13,8.21-18.34,18.34-18.34h.5c10.13,0,18.34,8.21,18.34,18.34v209.77c0,69.83,30.14,116.56,100.99,116.56,63.3,0,106.5-45.72,106.5-117.07V21.61c0-10.13,8.21-18.34,18.34-18.34h.51c10.13,0,18.34,8.21,18.34,18.34v335.12c0,10.13-8.21,18.34-18.34,18.34h0Z"/><path class="cls-1" d="M1756.56,377.52c-9.71,0-17.59-7.87-17.59-17.59v-133.65c0-26.13-6.53-56.77-26.13-75.36-16.08-15.08-37.67-23.62-59.78-23.62s-43.72,8.54-59.79,23.62c-19.09,18.08-25.62,47.73-25.62,72.85v136.16c0,9.71-7.87,17.59-17.59,17.59h0c-9.71,0-17.59-7.87-17.59-17.59V120.28c0-9.71,7.87-17.59,17.59-17.59h0c9.71,0,17.59,7.87,17.59,17.59h0c0,5.56,6.7,8.35,10.62,4.41,19.25-19.35,47.71-29.02,74.8-29.02,78.88,0,121.08,54.76,121.08,130.63v133.65c0,9.71-7.87,17.59-17.59,17.59h0Z"/><rect class="cls-1" x="1841.38" y="100.24" width="35.17" height="274.82" rx="17.59" ry="17.59"/><circle class="cls-1" cx="1858.96" cy="48.98" r="17.59"/></g></svg>